<svg width="48" height="45" viewBox="0 0 48 45" fill="none" xmlns="http://www.w3.org/2000/svg">
<ellipse cx="24" cy="22.5" rx="24" ry="22.5" fill="#808080"/>
<path d="M21.375 21.1471L27.625 27.9118M27.625 21.1471L21.375 27.9118M34.5 34C35.163 34 35.7989 33.7149 36.2678 33.2075C36.7366 32.7 37 32.0118 37 31.2941V17.7647C37 17.0471 36.7366 16.3588 36.2678 15.8514C35.7989 15.3439 35.163 15.0588 34.5 15.0588H24.625C24.2069 15.0633 23.7944 14.9541 23.4254 14.7414C23.0563 14.5287 22.7425 14.2192 22.5125 13.8412L21.5 12.2176C21.2724 11.8435 20.9625 11.5364 20.5981 11.3239C20.2338 11.1114 19.8264 11.0001 19.4125 11H14.5C13.837 11 13.2011 11.2851 12.7322 11.7925C12.2634 12.3 12 12.9882 12 13.7059V31.2941C12 32.0118 12.2634 32.7 12.7322 33.2075C13.2011 33.7149 13.837 34 14.5 34H34.5Z" stroke="white" stroke-width="2" stroke-linecap="round" stroke-linejoin="round"/>
</svg>
