<svg width="32" height="32" viewBox="0 0 32 32" fill="none" xmlns="http://www.w3.org/2000/svg">
<g clip-path="url(#clip0_1659_1509)">
<path opacity="0.1" fill-rule="evenodd" clip-rule="evenodd" d="M0 16C0 7.16344 7.16344 0 16 0C24.8366 0 32 7.16344 32 16C32 24.8366 24.8366 32 16 32C7.16344 32 0 24.8366 0 16Z" fill="white"/>
<path d="M20.2792 17.4903L20.8493 14.4369H17.2831V12.4563C17.2831 11.6208 17.7804 10.8058 19.3776 10.8058H21V8.20631C21 8.20631 19.5283 8 18.1219 8C15.1836 8 13.2648 9.46274 13.2648 12.1097V14.4369H10V17.4903H13.2648V24.8721C13.9203 24.9567 14.5909 25 15.274 25C15.9571 25 16.6276 24.9567 17.2831 24.8721V17.4903H20.2792Z" fill="white"/>
</g>
<defs>
<clipPath id="clip0_1659_1509">
<rect width="32" height="32" fill="white"/>
</clipPath>
</defs>
</svg>
