<svg width="48" height="45" viewBox="0 0 48 45" fill="none" xmlns="http://www.w3.org/2000/svg">
<ellipse cx="24" cy="22.5" rx="24" ry="22.5" fill="#FFA500"/>
<path d="M22.6843 28.8785H25.2808C25.9694 28.8785 26.6299 28.6641 27.1168 28.2825C27.6037 27.901 27.8773 27.3834 27.8773 26.8438C27.8773 26.3042 27.6037 25.7866 27.1168 25.4051C26.6299 25.0235 25.9694 24.8091 25.2808 24.8091H21.386C20.6071 24.8091 19.9579 25.0126 19.5685 25.4195L12.2983 30.9131M17.4913 34.9825L19.5685 33.5582C19.9579 33.1513 20.6071 32.9478 21.386 32.9478H26.579C28.0071 32.9478 29.3054 32.5409 30.2141 31.727L36.1861 27.2507C36.6871 26.8797 36.9795 26.368 36.999 25.8281C37.0184 25.2881 36.7634 24.7642 36.29 24.3717C35.8165 23.9791 35.1635 23.75 34.4745 23.7347C33.7854 23.7194 33.1169 23.9193 32.6159 24.2903L27.1633 28.2579M11 29.8958L18.7895 35.9998" stroke="white" stroke-width="1.5" stroke-linecap="round" stroke-linejoin="round"/>
<path d="M18.2 12.7492L24 15.4994M24 15.4994L29.8 12.7492M24 15.4994V21M30 13.2992C29.9998 13.1063 29.938 12.9168 29.821 12.7498C29.704 12.5828 29.5358 12.4441 29.3333 12.3476L24.6667 10.1474C24.464 10.0508 24.234 10 24 10C23.766 10 23.536 10.0508 23.3333 10.1474L18.6667 12.3476C18.4642 12.4441 18.296 12.5828 18.179 12.7498C18.062 12.9168 18.0002 13.1063 18 13.2992V17.6997C18.0002 17.8926 18.062 18.0821 18.179 18.2491C18.296 18.4161 18.4642 18.5548 18.6667 18.6513L23.3333 20.8515C23.536 20.948 23.766 20.9989 24 20.9989C24.234 20.9989 24.464 20.948 24.6667 20.8515L29.3333 18.6513C29.5358 18.5548 29.704 18.4161 29.821 18.2491C29.938 18.0821 29.9998 17.8926 30 17.6997V13.2992Z" stroke="white" stroke-width="1.5" stroke-linecap="round" stroke-linejoin="round"/>
</svg>
