<svg width="60" height="60" viewBox="0 0 60 60" fill="none" xmlns="http://www.w3.org/2000/svg">
<path id="Vector" fill-rule="evenodd" clip-rule="evenodd" d="M0.48998 28.1555C0.727495 27.6931 0.962307 27.236 1.24154 26.7939C2.09968 25.4793 2.95781 24.1829 3.81595 22.8867C4.67404 21.5904 5.53221 20.294 6.39031 18.9795C7.33972 17.5553 8.58127 16.7155 10.334 16.5693C11.6851 16.4781 13.0271 16.3685 14.3691 16.2591C15.7109 16.1495 17.0529 16.0399 18.4041 15.9487C18.8423 15.9121 19.0979 15.7295 19.3535 15.4009C22.7129 11.4937 26.5472 8.06115 31.0387 5.46852C35.7492 2.72981 40.898 1.19614 46.2657 0.46582C49.4427 0.0276275 52.5831 -0.118437 55.7965 0.10066C57.9875 0.28324 59.8132 2.07252 59.9228 4.26348C60.6165 17.8109 56.6728 29.5691 46.5579 38.9537C46.4185 39.0832 46.2817 39.2181 46.1448 39.3533C45.7796 39.7137 45.4125 40.0757 44.9877 40.3413C44.2209 40.8525 44.0383 41.5464 43.9653 42.4227C43.8251 44.8415 43.6176 47.2265 43.4073 49.6427L43.3811 49.9451C43.2715 51.4056 42.5777 52.5741 41.3361 53.414C38.3053 55.4224 35.2745 57.4308 32.2436 59.4027C32.0003 59.5731 31.7243 59.6785 31.4484 59.784C31.3105 59.8367 31.1725 59.8896 31.0387 59.9504H29.8701C29.8336 59.9139 29.7971 59.8773 29.724 59.8408C28.2999 59.4392 27.4965 58.4897 27.2775 57.0291C27.1679 56.2805 27.0492 55.5411 26.9305 54.8016C26.8119 54.0621 26.6932 53.3228 26.5836 52.5741L26.1455 49.8355C25.9264 49.8355 25.8168 49.8355 25.7073 49.872C24.1005 50.1276 22.7495 49.6164 21.6175 48.5209L11.4295 38.3329C10.5896 37.4931 10.1149 36.5071 10.0054 35.3387C9.98133 35.0017 9.98897 34.6808 9.99699 34.3443C10.0011 34.1701 10.0054 33.9917 10.0054 33.8049C9.96887 33.8049 9.85932 33.7684 9.78629 33.7319C9.20044 33.64 8.6182 33.5517 8.03731 33.4636C6.77163 33.2717 5.51232 33.0808 4.23585 32.8555L4.138 32.836C3.25529 32.6597 2.34227 32.4773 1.49716 32.1252C0.657288 31.76 0.292128 30.8836 0 30.0437C0.073032 29.7152 0.073032 29.3135 0.073032 28.9483C0.218717 28.6835 0.354797 28.4185 0.48998 28.1555ZM52.1449 3.56968V3.49665C50.8668 3.56968 49.6252 3.64271 48.3472 3.75227C43.5271 4.22697 38.8896 5.32245 34.5807 7.54993C26.6201 11.6762 20.7776 17.9205 16.6148 25.7715C16.4323 26.1365 16.5783 26.2827 16.7973 26.5017L33.5583 43.2625C33.8504 43.5547 34.0695 43.5912 34.3981 43.3721C34.8853 43.0772 35.3861 42.7913 35.8877 42.5049C36.8144 41.9759 37.7447 41.4447 38.5975 40.8525C44.1479 37.0184 48.7853 32.3077 52.0353 26.3557C54.3359 22.1199 55.6504 17.5553 56.1616 12.7717C56.3601 10.7587 56.4044 8.72371 56.4485 6.70087C56.4613 6.1184 56.474 5.53693 56.4903 4.95729C56.5268 3.93484 56.1251 3.6062 55.1027 3.56968C54.4453 3.54533 53.7881 3.55345 53.1308 3.56156C52.8021 3.56563 52.4735 3.56968 52.1449 3.56968ZM30.3448 45.2344L14.862 29.7516C14.7419 30.2171 14.6033 30.6824 14.464 31.1503C14.2643 31.8205 14.0632 32.496 13.9127 33.1841C13.8553 33.462 13.8028 33.7024 13.7568 33.9125C13.5928 34.6613 13.5129 35.0263 13.6096 35.3361C13.7015 35.6308 13.9532 35.8756 14.4443 36.3533C14.5871 36.4921 14.75 36.6507 14.9351 36.8357C17.9293 39.8667 20.9601 42.8609 23.9911 45.8552C24.2832 46.1473 24.7944 46.476 25.1231 46.4029C26.4201 46.1868 27.7173 45.8705 28.9997 45.558C29.4501 45.4483 29.8987 45.3389 30.3448 45.2344ZM30.7829 56.2257L30.88 56.1652C31.1173 56.0175 31.2788 55.9168 31.4403 55.7876C32.0828 55.3627 32.7281 54.9379 33.3748 54.5121L33.3771 54.5107C35.0085 53.4368 36.648 52.3576 38.2688 51.2596C38.5347 51.0804 38.7575 50.9407 38.9448 50.8231C39.3412 50.5743 39.5791 50.4251 39.7293 50.2137C39.9545 49.8972 39.9835 49.4412 40.0557 48.3023L40.0581 48.2653C40.0581 48.1923 40.0672 48.1284 40.0763 48.0644C40.0855 48.0005 40.0945 47.9367 40.0945 47.8636C40.1493 47.2245 40.1951 46.5856 40.2407 45.9465C40.2863 45.3075 40.332 44.6684 40.3867 44.0295C40.2772 44.0295 40.2407 44.0295 40.2041 44.066C40.0945 44.1389 39.9851 44.2029 39.8755 44.2668C39.766 44.3307 39.6564 44.3947 39.5468 44.4676C36.9907 46.0743 34.3251 47.4255 31.4768 48.4479C31.2864 48.5193 31.0649 48.5713 30.8453 48.6228C30.3911 48.7296 29.9448 48.8344 29.7971 49.1052C29.6009 49.4413 29.7273 49.9925 29.8461 50.5113C29.8823 50.6687 29.9176 50.8231 29.9431 50.9675C30.1569 52.4028 30.3963 53.8636 30.6397 55.35L30.7829 56.2257ZM11.0278 30.4089C12.1598 26.5748 13.9127 23.0692 16.1401 19.6732C14.1317 19.8193 12.2329 19.9653 10.3705 20.1845C10.0419 20.2209 9.67675 20.5496 9.45765 20.8417C8.15112 22.7755 6.86329 24.7277 5.58079 26.672L5.57744 26.6772C5.06883 27.4483 4.56105 28.218 4.05328 28.9848C3.98024 29.0944 3.94373 29.1675 3.87069 29.35C5.93116 29.6353 7.99163 29.9481 10.076 30.2645L11.0278 30.4089ZM0.0730456 57.7593C0.438184 57.2845 0.803391 56.8099 1.20504 56.3717C4.60103 52.9392 7.99703 49.5432 11.4295 46.1473C11.7582 45.8187 12.2329 45.5631 12.6711 45.4535C13.3649 45.3075 13.9856 45.636 14.3508 46.2568C14.7525 46.9141 14.716 47.5713 14.2777 48.1921C14.1952 48.3297 14.0711 48.4467 13.9525 48.5584C13.9137 48.5949 13.8756 48.6309 13.8396 48.6669C10.3706 52.1724 6.86503 55.6415 3.35949 59.1104C3.15583 59.3141 2.92413 59.4757 2.69045 59.6387C2.54704 59.7387 2.40288 59.8392 2.264 59.9503H1.31459C0.730333 59.6581 0.292141 59.2565 0.0365296 58.6723C0.0730456 58.3801 0.0730456 58.0515 0.0730456 57.7593ZM0.385401 46.9336C0.283984 47.0999 0.182565 47.2663 0.0730329 47.4244V47.8627C0.0912887 47.9173 0.118672 47.9813 0.146056 48.0452C0.17344 48.1091 0.200824 48.1729 0.219079 48.2277C0.693731 49.3961 2.11768 49.7977 3.03047 48.9215C5.03861 46.9863 6.97372 45.0512 8.90884 43.0431C9.82163 42.0937 9.31047 40.5237 7.99605 40.1952C7.30233 40.0491 6.71815 40.3047 6.20699 40.8159C4.49105 42.5319 2.77479 44.248 1.05885 46.0005C0.791091 46.2683 0.588247 46.6009 0.385401 46.9336ZM12.1231 59.9857C12.0136 59.9492 11.9041 59.9127 11.7945 59.8397C10.5531 59.3651 10.188 57.9045 11.1008 56.9917C12.9877 55.0324 14.9105 53.1451 16.8696 51.2224L16.9061 51.1864C17.5999 50.4927 18.6587 50.5292 19.3524 51.1864C20.0461 51.8436 20.0827 52.9389 19.3889 53.6692C17.4905 55.6041 15.5556 57.5025 13.6207 59.4009C13.4503 59.5712 13.2144 59.6773 12.9791 59.7829C12.8615 59.8356 12.7438 59.8884 12.6343 59.9492C12.4517 59.9857 12.3057 59.9857 12.1231 59.9857ZM41.1536 10.1059C36.3335 10.1059 32.3897 14.0496 32.3897 18.9063C32.3897 23.7628 36.2969 27.6701 41.1536 27.6701C46.0101 27.6701 49.9539 23.7628 49.9539 18.9063C49.9539 14.0496 45.9737 10.1059 41.1536 10.1059ZM41.1536 24.128C38.2323 24.128 35.8952 21.8275 35.8952 18.9063C35.8952 15.9849 38.2688 13.6115 41.1901 13.6115C44.0748 13.6115 46.4484 15.9849 46.4484 18.8697C46.4484 21.7545 44.0748 24.128 41.1536 24.128Z" fill="#259D19"/>
</svg>
