<svg width="48" height="45" viewBox="0 0 48 45" fill="none" xmlns="http://www.w3.org/2000/svg">
<ellipse cx="24" cy="22.5" rx="24" ry="22.5" fill="#1591EA"/>
<path d="M26.875 11V15.6C26.875 16.21 27.1252 16.795 27.5706 17.2263C28.016 17.6577 28.6201 17.9 29.25 17.9H34M20.9375 25.95L23.3125 28.25L28.0625 23.65M28.0625 11H17.375C16.7451 11 16.141 11.2423 15.6956 11.6737C15.2502 12.105 15 12.69 15 13.3V31.7C15 32.31 15.2502 32.895 15.6956 33.3263C16.141 33.7577 16.7451 34 17.375 34H31.625C32.2549 34 32.859 33.7577 33.3044 33.3263C33.7498 32.895 34 32.31 34 31.7V16.75L28.0625 11Z" stroke="white" stroke-width="2" stroke-linecap="round" stroke-linejoin="round"/>
</svg>
