<svg width="48" height="45" viewBox="0 0 48 45" fill="none" xmlns="http://www.w3.org/2000/svg">
<path d="M48 22.5C48 34.9264 37.2548 45 24 45C10.7452 45 0 34.9264 0 22.5C0 10.0736 10.7452 0 24 0C37.2548 0 48 10.0736 48 22.5Z" fill="#FDD700"/>
<path d="M23.7892 9V14.4M29.1607 28.17L32.8696 32.085M23.7892 30.6V36M14.7089 32.085L18.4178 28.17M11 22.5H16.1157M14.7089 12.915L18.4178 16.83" stroke="white" stroke-width="2" stroke-linecap="round" stroke-linejoin="round"/>
<path d="M37.1152 16.3522C37.3955 16.1154 37.6178 15.8344 37.7696 15.5251C37.9213 15.2158 37.9993 14.8842 37.9993 14.5494C37.9993 14.2147 37.9213 13.8831 37.7696 13.5738C37.6178 13.2645 37.3955 12.9835 37.1152 12.7467C36.8349 12.51 36.5021 12.3222 36.1358 12.1941C35.7696 12.0659 35.377 12 34.9806 12C34.5842 12 34.1916 12.0659 33.8254 12.1941C33.4591 12.3222 33.1264 12.51 32.846 12.7467L25.7261 18.7622C25.3882 19.0474 25.1409 19.4 25.007 19.7872L23.8175 23.2319C23.7818 23.3351 23.7797 23.4446 23.8113 23.5488C23.8429 23.653 23.9071 23.7482 23.9972 23.8242C24.0873 23.9003 24.1999 23.9545 24.3233 23.9812C24.4467 24.0079 24.5763 24.0061 24.6986 23.976L28.7773 22.9714C29.2358 22.8583 29.6533 22.6495 29.991 22.3641L37.1152 16.3522Z" stroke="white" stroke-width="2" stroke-linecap="round" stroke-linejoin="round"/>
</svg>
