<svg width="13" height="13" viewBox="0 0 13 13" fill="none" xmlns="http://www.w3.org/2000/svg">
<path id="Vector" fill-rule="evenodd" clip-rule="evenodd" d="M12.8269 0.659775C12.9874 0.807941 13.0418 1.02789 12.9668 1.22566L8.83045 12.1347C8.75041 12.3458 8.53889 12.4904 8.2968 12.4995C8.05472 12.5087 7.83114 12.3804 7.73274 12.1761L5.46141 7.4587L0.350921 5.36209C0.129519 5.27126 -0.00938215 5.06487 0.000494167 4.84141C0.0103705 4.61795 0.167023 4.4227 0.395704 4.34881L12.2139 0.530638C12.4281 0.461417 12.6664 0.511609 12.8269 0.659775ZM6.61389 7.16626L8.20736 10.4758L10.9959 3.12129L6.61389 7.16626ZM10.1603 2.34991L2.19291 4.92397L5.77822 6.39487L10.1603 2.34991Z" fill="white"/>
</svg>
