<svg width="59" height="63" viewBox="0 0 59 63" fill="none" xmlns="http://www.w3.org/2000/svg">
<path id="Vector" fill-rule="evenodd" clip-rule="evenodd" d="M29.3141 14.3106C28.6324 14.3106 28.0225 13.9362 27.7354 13.2996C27.5919 12.9626 27.4843 12.5882 27.4843 12.1763V8.35695C27.4843 6.6345 27.4843 4.87461 27.4484 3.15216C27.4484 1.8416 27.9149 1.13015 28.9553 0.718262H29.7089C30.7493 1.13015 31.2157 1.8416 31.1799 3.1896C31.144 5.09926 31.144 7.04638 31.144 8.95605V12.401C31.144 13.3371 30.6058 14.0485 29.7089 14.2732C29.6589 14.2732 29.6011 14.2813 29.5393 14.2899C29.4679 14.2999 29.3911 14.3106 29.3141 14.3106ZM29.2424 62.0525C24.7573 62.0525 20.2724 60.8543 15.8949 58.4578C9.25709 54.8631 4.01858 49.3962 0.322922 42.2817C-0.107641 41.458 -0.107641 40.7091 0.322922 39.8853C4.8797 31.3105 11.3381 25.282 19.5547 22.0617C22.8198 20.7886 26.1207 20.1146 29.3859 20.1146C33.9068 20.1146 38.4635 21.3502 42.9486 23.8216C49.4788 27.4163 54.6455 32.8083 58.3053 39.8478C58.3687 39.9581 58.4197 40.0813 58.4728 40.2098C58.5099 40.2996 58.548 40.3921 58.5924 40.4844L58.7 40.7091V41.458C57.0854 45.0152 54.7173 48.3852 51.4881 51.7178C47.003 56.3609 42.1951 59.3564 36.849 60.9292C34.3014 61.678 31.754 62.0525 29.2424 62.0525ZM29.4217 24.0089C25.762 24.0089 22.0305 24.9449 18.3347 26.7797C12.7375 29.5507 8.14481 34.0814 4.26975 40.5594C4.05446 40.8963 4.12622 41.4205 4.30562 41.72C6.96076 46.176 10.19 49.883 13.9216 52.6913C18.6936 56.286 23.7885 58.1208 29.1348 58.1582C32.9739 58.1208 36.4184 57.3345 39.7553 55.7243C45.6396 52.8786 50.4117 48.2729 54.3585 41.6826C54.5738 41.3457 54.502 40.7466 54.3225 40.4469C51.1651 35.1673 47.5054 31.1981 43.1279 28.3524C38.643 25.4692 34.0144 24.0089 29.4217 24.0089ZM16.2538 15.1718C16.6484 16.0329 17.3661 16.2203 17.7607 16.2577C18.4782 16.2577 19.1242 15.9206 19.4471 15.359C19.77 14.8723 19.8059 14.2357 19.5905 13.674C18.3347 10.5661 17.0072 7.45821 15.9667 5.13665C15.6797 4.46265 15.0697 4.05075 14.352 4.05075C14.1009 4.05075 13.8138 4.12565 13.5627 4.23799C12.6298 4.68732 12.2351 5.77321 12.6298 6.70932C13.5881 8.96663 14.5673 11.2457 15.4558 13.3137L15.4575 13.3177C15.7328 13.9583 15.9993 14.5786 16.2538 15.1718ZM40.9035 16.2577C40.1859 16.2577 39.5758 15.9208 39.2171 15.3591C38.8941 14.8348 38.8224 14.1608 39.0736 13.5617C39.1885 13.2865 39.3034 13.0099 39.4187 12.7327C39.9147 11.5394 40.4152 10.3354 40.9393 9.18071C41.0566 8.92064 41.1679 8.66059 41.278 8.40309C41.4374 8.0304 41.5948 7.66272 41.7645 7.30848C41.8184 7.19616 41.8633 7.0932 41.908 6.99024C41.9529 6.88735 41.9978 6.78417 42.0516 6.67193C42.231 6.22258 42.4462 5.7358 42.6616 5.28647C42.9844 4.53759 43.6303 4.08826 44.348 4.08826C44.5991 4.08826 44.8862 4.16314 45.1373 4.27548C46.0702 4.72481 46.4648 5.8107 46.0342 6.8217C45.1613 8.93776 44.244 11.0538 43.3347 13.1518L43.333 13.1557C43.0844 13.7293 42.8363 14.3017 42.5898 14.8723L42.4821 15.1343C42.0516 15.9582 41.4058 16.2203 40.9035 16.2577ZM50.1605 21.5C50.5193 21.9119 51.0216 22.174 51.5599 22.174C51.9546 22.174 52.3133 22.0617 52.708 21.7622C54.502 20.152 56.296 18.4295 58.1259 16.6696C58.8076 15.9956 58.6641 15.1719 58.4489 14.6102C58.1977 13.8988 57.5877 13.4869 56.7625 13.3371C56.7086 13.3558 56.6459 13.3839 56.583 13.412C56.5203 13.4401 56.4575 13.4682 56.4037 13.4869C56.3504 13.5116 56.2983 13.5352 56.2471 13.5584C55.9881 13.6757 55.7582 13.7799 55.5785 13.9362C53.9638 15.3965 52.2774 16.9693 50.3041 18.8789C49.5505 19.5903 49.5146 20.7137 50.1605 21.5ZM7.14015 22.174C6.70959 22.174 6.27903 22.0242 5.95611 21.6873C4.41326 20.2643 2.76277 18.7292 0.681722 16.7446C0.107638 16.183 -0.0717625 15.434 0.251159 14.6477C0.538201 13.9737 1.11228 13.4869 1.93753 13.3371C2.02443 13.3976 2.13474 13.4336 2.23065 13.465C2.25345 13.4725 2.27566 13.4797 2.29633 13.4869C2.37218 13.5221 2.44804 13.5552 2.5225 13.5877C2.76498 13.6936 2.99277 13.793 3.15746 13.9362C4.73619 15.3591 6.38668 16.8944 8.39597 18.8415C9.14945 19.5529 9.18532 20.7511 8.50361 21.5C8.14481 21.9494 7.64248 22.174 7.14015 22.174ZM18.4065 41.0836C18.4065 47.4117 23.3222 52.5415 29.35 52.5415C35.3778 52.5415 40.2935 47.4117 40.2935 41.1211C40.2935 34.7928 35.3778 29.663 29.35 29.663C23.3222 29.663 18.4065 34.7928 18.4065 41.0836ZM22.0664 41.1211C22.0664 36.9272 25.3314 33.5197 29.35 33.5197C33.3686 33.5197 36.6336 36.9647 36.5978 41.1585C36.5978 45.3149 33.3327 48.7222 29.3141 48.7222C25.3314 48.7222 22.0664 45.3149 22.0664 41.1211Z" fill="#E3A11F"/>
</svg>
