<svg width="191" height="51" viewBox="0 0 191 51" fill="none" xmlns="http://www.w3.org/2000/svg">
<path d="M5.57819 28V24.38H10.5037C11.4136 24.38 12.1258 24.113 12.6401 23.5789C13.1544 23.0448 13.4115 22.392 13.4115 21.6206C13.4115 21.0865 13.2928 20.6117 13.0555 20.1963C12.8181 19.7809 12.4818 19.4545 12.0466 19.2172C11.6312 18.9798 11.1169 18.8611 10.5037 18.8611H5.57819V15.3302H10.118C10.8894 15.3302 11.5125 15.1422 11.9873 14.7664C12.462 14.3708 12.6994 13.7773 12.6994 12.9861C12.6994 12.2146 12.462 11.641 11.9873 11.2651C11.5125 10.8695 10.8894 10.6717 10.118 10.6717H5.57819V7.05175H11.0081C12.3532 7.05175 13.4907 7.29901 14.4204 7.79354C15.3699 8.28807 16.0919 8.95074 16.5864 9.78155C17.0809 10.6124 17.3282 11.5322 17.3282 12.541C17.3282 13.8268 16.9128 14.9148 16.082 15.8049C15.2512 16.6951 14.0247 17.3083 12.4027 17.6446L12.5214 16.072C14.2819 16.4082 15.6369 17.0907 16.5864 18.1193C17.5557 19.1479 18.0403 20.4139 18.0403 21.9173C18.0403 23.0646 17.7535 24.1031 17.1798 25.0328C16.626 25.9428 15.8149 26.6648 14.7468 27.1989C13.6984 27.733 12.4324 28 10.9488 28H5.57819ZM2.01758 28V7.05175H6.6167V28H2.01758ZM26.634 28.2967C25.3087 28.2967 24.1218 27.9703 23.0734 27.3175C22.0448 26.6648 21.2239 25.7746 20.6106 24.6471C20.0172 23.5196 19.7205 22.2338 19.7205 20.7898C19.7205 19.3457 20.0172 18.06 20.6106 16.9324C21.2239 15.8049 22.0448 14.9148 23.0734 14.262C24.1218 13.6092 25.3087 13.2828 26.634 13.2828C27.6033 13.2828 28.4736 13.4707 29.2451 13.8466C30.0364 14.2224 30.6792 14.7466 31.1738 15.4192C31.6683 16.072 31.9452 16.8236 32.0046 17.6742V23.9053C31.9452 24.7559 31.6683 25.5175 31.1738 26.19C30.699 26.8428 30.066 27.3571 29.2748 27.733C28.4835 28.1088 27.6033 28.2967 26.634 28.2967ZM27.5538 24.202C28.5231 24.202 29.3045 23.8855 29.8979 23.2525C30.4913 22.5997 30.788 21.7788 30.788 20.7898C30.788 20.1172 30.6496 19.5238 30.3726 19.0095C30.1155 18.4952 29.7396 18.0995 29.2451 17.8226C28.7704 17.5259 28.2165 17.3775 27.5835 17.3775C26.9505 17.3775 26.3867 17.5259 25.8922 17.8226C25.4175 18.0995 25.0317 18.4952 24.735 19.0095C24.4581 19.5238 24.3196 20.1172 24.3196 20.7898C24.3196 21.4425 24.4581 22.0261 24.735 22.5404C25.0119 23.0547 25.3977 23.4602 25.8922 23.7569C26.3867 24.0537 26.9406 24.202 27.5538 24.202ZM30.61 28V24.113L31.2925 20.6117L30.61 17.1105V13.5795H35.0608V28H30.61ZM38.2572 28V6.45831H42.797V28H38.2572ZM52.0172 28.2967C50.6919 28.2967 49.505 27.9703 48.4566 27.3175C47.428 26.6648 46.6071 25.7746 45.9939 24.6471C45.4004 23.5196 45.1037 22.2338 45.1037 20.7898C45.1037 19.3457 45.4004 18.06 45.9939 16.9324C46.6071 15.8049 47.428 14.9148 48.4566 14.262C49.505 13.6092 50.6919 13.2828 52.0172 13.2828C52.9865 13.2828 53.8569 13.4707 54.6284 13.8466C55.4196 14.2224 56.0625 14.7466 56.557 15.4192C57.0516 16.072 57.3285 16.8236 57.3878 17.6742V23.9053C57.3285 24.7559 57.0516 25.5175 56.557 26.19C56.0823 26.8428 55.4493 27.3571 54.658 27.733C53.8668 28.1088 52.9865 28.2967 52.0172 28.2967ZM52.9371 24.202C53.9063 24.202 54.6877 23.8855 55.2811 23.2525C55.8746 22.5997 56.1713 21.7788 56.1713 20.7898C56.1713 20.1172 56.0328 19.5238 55.7559 19.0095C55.4987 18.4952 55.1229 18.0995 54.6284 17.8226C54.1536 17.5259 53.5997 17.3775 52.9667 17.3775C52.3337 17.3775 51.77 17.5259 51.2755 17.8226C50.8007 18.0995 50.415 18.4952 50.1183 19.0095C49.8413 19.5238 49.7029 20.1172 49.7029 20.7898C49.7029 21.4425 49.8413 22.0261 50.1183 22.5404C50.3952 23.0547 50.7809 23.4602 51.2755 23.7569C51.77 24.0537 52.3239 24.202 52.9371 24.202ZM55.9933 28V24.113L56.6757 20.6117L55.9933 17.1105V13.5795H60.444V28H55.9933ZM69.7528 34.4684C68.1703 34.4684 66.7758 34.1915 65.5691 33.6376C64.3823 33.1035 63.4426 32.342 62.7503 31.3529L65.5395 28.5638C66.0538 29.177 66.6274 29.6418 67.2604 29.9583C67.9132 30.2748 68.6945 30.4331 69.6045 30.4331C70.732 30.4331 71.6123 30.1561 72.2453 29.6023C72.898 29.0484 73.2244 28.267 73.2244 27.2582V23.5789L73.9959 20.4337L73.3134 17.2885V13.5795H77.7642V27.1395C77.7642 28.6231 77.418 29.9089 76.7257 30.9968C76.0334 32.0848 75.0839 32.9354 73.8772 33.5486C72.6706 34.1618 71.2958 34.4684 69.7528 34.4684ZM69.5451 27.5549C68.2198 27.5549 67.0428 27.2384 66.0142 26.6054C64.9856 25.9724 64.1745 25.112 63.5811 24.024C62.9877 22.936 62.691 21.7294 62.691 20.404C62.691 19.0589 62.9877 17.8523 63.5811 16.7841C64.1745 15.6961 64.9856 14.8455 66.0142 14.2323C67.0428 13.5993 68.2198 13.2828 69.5451 13.2828C70.5342 13.2828 71.4145 13.4707 72.1859 13.8466C72.9772 14.2026 73.6102 14.7169 74.0849 15.3895C74.5794 16.0423 74.8564 16.8039 74.9157 17.6742V23.1635C74.8564 24.0141 74.5794 24.7757 74.0849 25.4482C73.6102 26.101 72.9772 26.6153 72.1859 26.9912C71.3947 27.367 70.5144 27.5549 69.5451 27.5549ZM70.4056 23.5196C71.0386 23.5196 71.5826 23.3811 72.0376 23.1042C72.5123 22.8272 72.8684 22.4613 73.1057 22.0063C73.3629 21.5316 73.4915 20.9975 73.4915 20.404C73.4915 19.8106 73.3629 19.2765 73.1057 18.8018C72.8684 18.327 72.5123 17.9512 72.0376 17.6742C71.5826 17.3973 71.0386 17.2588 70.4056 17.2588C69.7924 17.2588 69.2484 17.3973 68.7737 17.6742C68.2989 17.9512 67.933 18.327 67.6758 18.8018C67.4187 19.2765 67.2901 19.8106 67.2901 20.404C67.2901 20.9579 67.4187 21.4821 67.6758 21.9766C67.933 22.4514 68.289 22.8272 68.744 23.1042C69.2187 23.3811 69.7726 23.5196 70.4056 23.5196ZM87.3774 28.3264C86.0521 28.3264 84.8751 28.0593 83.8465 27.5253C82.8376 26.9714 82.0464 26.2197 81.4727 25.2702C80.8991 24.3009 80.6122 23.1932 80.6122 21.947V13.5795H85.152V21.8876C85.152 22.3821 85.2311 22.8074 85.3894 23.1635C85.5674 23.5196 85.8246 23.7965 86.1608 23.9943C86.4971 24.1921 86.9026 24.291 87.3774 24.291C88.05 24.291 88.584 24.0833 88.9797 23.6679C89.3753 23.2327 89.5731 22.6393 89.5731 21.8876V13.5795H94.1129V21.9173C94.1129 23.1833 93.826 24.3009 93.2524 25.2702C92.6787 26.2197 91.8875 26.9714 90.8787 27.5253C89.8698 28.0593 88.7027 28.3264 87.3774 28.3264ZM106.488 28V19.7809C106.488 19.0292 106.251 18.4259 105.776 17.9709C105.321 17.4962 104.737 17.2588 104.025 17.2588C103.531 17.2588 103.095 17.3676 102.72 17.5852C102.344 17.783 102.047 18.0797 101.829 18.4754C101.612 18.8512 101.503 19.2864 101.503 19.7809L99.7524 18.9204C99.7524 17.7929 99.9996 16.8039 100.494 15.9533C100.989 15.1027 101.671 14.4499 102.542 13.9949C103.432 13.5202 104.431 13.2828 105.538 13.2828C106.607 13.2828 107.546 13.54 108.357 14.0543C109.188 14.5488 109.841 15.2115 110.316 16.0423C110.79 16.8731 111.028 17.783 111.028 18.7721V28H106.488ZM96.9632 28V13.5795H101.503V28H96.9632ZM119.967 28.2967C118.641 28.2967 117.455 27.9703 116.406 27.3175C115.378 26.6648 114.557 25.7746 113.943 24.6471C113.35 23.5196 113.053 22.2338 113.053 20.7898C113.053 19.3457 113.35 18.06 113.943 16.9324C114.557 15.8049 115.378 14.9148 116.406 14.262C117.455 13.6092 118.641 13.2828 119.967 13.2828C120.936 13.2828 121.806 13.4707 122.578 13.8466C123.369 14.2224 124.012 14.7466 124.507 15.4192C125.001 16.072 125.278 16.8236 125.337 17.6742V23.9053C125.278 24.7559 125.001 25.5175 124.507 26.19C124.032 26.8428 123.399 27.3571 122.608 27.733C121.816 28.1088 120.936 28.2967 119.967 28.2967ZM120.887 24.202C121.856 24.202 122.637 23.8855 123.231 23.2525C123.824 22.5997 124.121 21.7788 124.121 20.7898C124.121 20.1172 123.982 19.5238 123.705 19.0095C123.448 18.4952 123.072 18.0995 122.578 17.8226C122.103 17.5259 121.549 17.3775 120.916 17.3775C120.283 17.3775 119.72 17.5259 119.225 17.8226C118.75 18.0995 118.365 18.4952 118.068 19.0095C117.791 19.5238 117.652 20.1172 117.652 20.7898C117.652 21.4425 117.791 22.0261 118.068 22.5404C118.345 23.0547 118.73 23.4602 119.225 23.7569C119.72 24.0537 120.273 24.202 120.887 24.202ZM123.943 28V24.113L124.625 20.6117L123.943 17.1105V13.5795H128.394V28H123.943ZM141.115 28V19.7809C141.115 19.0292 140.877 18.4259 140.403 17.9709C139.948 17.4962 139.364 17.2588 138.652 17.2588C138.157 17.2588 137.722 17.3676 137.346 17.5852C136.97 17.783 136.674 18.0797 136.456 18.4754C136.239 18.8512 136.13 19.2864 136.13 19.7809L134.379 18.9204C134.379 17.7929 134.626 16.8039 135.121 15.9533C135.615 15.1027 136.298 14.4499 137.168 13.9949C138.058 13.5202 139.057 13.2828 140.165 13.2828C141.233 13.2828 142.173 13.54 142.984 14.0543C143.815 14.5488 144.468 15.2115 144.942 16.0423C145.417 16.8731 145.654 17.783 145.654 18.7721V28H141.115ZM131.59 28V13.5795H136.13V28H131.59Z" fill="#4BAD4E"/>
<path d="M5.1113 47.5832C4.06125 47.5832 3.20942 47.4439 2.55582 47.1653C1.90222 46.876 1.40934 46.4795 1.07718 45.9759C0.755731 45.4724 0.568222 44.9045 0.514648 44.2723H1.76828C1.80043 44.7866 1.97186 45.2045 2.28259 45.5259C2.59332 45.8367 3.00048 46.067 3.50408 46.217C4.01839 46.367 4.58092 46.442 5.19166 46.442C6.0917 46.442 6.80424 46.2867 7.32926 45.9759C7.85429 45.6545 8.1168 45.1831 8.1168 44.5616C8.1168 44.1866 7.98286 43.8866 7.71499 43.6616C7.45784 43.4258 7.10961 43.233 6.6703 43.083C6.24171 42.9329 5.77026 42.799 5.25595 42.6811C4.74164 42.5526 4.22197 42.4186 3.69694 42.2793C3.18263 42.1401 2.70583 41.9633 2.26652 41.749C1.83793 41.5347 1.4897 41.2614 1.22183 40.9293C0.96467 40.5864 0.836092 40.1525 0.836092 39.6274C0.836092 38.7595 1.16825 38.0524 1.83257 37.5059C2.5076 36.9594 3.50944 36.6862 4.83807 36.6862C5.78097 36.6862 6.5578 36.8309 7.16854 37.1202C7.77928 37.3988 8.23466 37.7684 8.53468 38.2291C8.8454 38.6899 9.01684 39.1881 9.04899 39.7239H7.81143C7.74714 39.1881 7.47927 38.7381 7.00782 38.3738C6.53637 37.9988 5.81312 37.8113 4.83807 37.8113C4.23804 37.8113 3.75052 37.8702 3.3755 37.9881C3.00048 38.1059 2.71118 38.2613 2.5076 38.4542C2.31474 38.6363 2.1808 38.8292 2.1058 39.0328C2.04151 39.2363 2.00936 39.4292 2.00936 39.6114C2.00936 39.9649 2.13794 40.2542 2.3951 40.4793C2.66297 40.6936 3.0112 40.8757 3.43979 41.0257C3.8791 41.165 4.36126 41.2936 4.88629 41.4114C5.41131 41.5293 5.93098 41.6632 6.44529 41.8132C6.97032 41.9525 7.44712 42.1347 7.87572 42.3597C8.31502 42.574 8.66325 42.8526 8.92041 43.1955C9.18828 43.5383 9.32221 43.9776 9.32221 44.5134C9.32221 45.4991 8.9472 46.2599 8.19716 46.7956C7.44712 47.3207 6.4185 47.5832 5.1113 47.5832ZM13.3583 47.4546L17.8746 36.8148H19.3854L23.9017 47.4546H22.5677L21.2658 44.3687H15.9941L14.6923 47.4546H13.3583ZM16.4602 43.2597H20.7997L18.63 38.0684L16.4602 43.2597ZM28.6751 47.4546V36.8148H30.0734L36.6469 45.767V36.8148H37.8523V47.4546H36.454L29.8805 38.4702V47.4546H28.6751ZM46.5199 47.4546V37.9559H42.8072V36.8148H51.438V37.9559H47.7253V47.4546H46.5199ZM61.1186 47.5832C60.315 47.5832 59.581 47.4439 58.9167 47.1653C58.2524 46.8867 57.6791 46.4956 57.197 45.992C56.7255 45.4884 56.3612 44.9098 56.1041 44.2562C55.8469 43.5919 55.7183 42.8847 55.7183 42.1347C55.7183 41.3739 55.8469 40.6668 56.1041 40.0132C56.3612 39.3596 56.7255 38.781 57.197 38.2774C57.6791 37.7738 58.2524 37.3827 58.9167 37.1041C59.581 36.8255 60.315 36.6862 61.1186 36.6862C61.9222 36.6862 62.6562 36.8255 63.3205 37.1041C63.9848 37.3827 64.5527 37.7738 65.0241 38.2774C65.5063 38.781 65.876 39.3596 66.1331 40.0132C66.3903 40.6668 66.5188 41.3739 66.5188 42.1347C66.5188 42.8847 66.3903 43.5919 66.1331 44.2562C65.876 44.9098 65.5063 45.4884 65.0241 45.992C64.5527 46.4956 63.9848 46.8867 63.3205 47.1653C62.6562 47.4439 61.9222 47.5832 61.1186 47.5832ZM61.1186 46.4099C61.9865 46.4099 62.7312 46.2224 63.3526 45.8474C63.9848 45.4616 64.467 44.9473 64.7991 44.3044C65.142 43.6508 65.3134 42.9276 65.3134 42.1347C65.3134 41.3311 65.142 40.6078 64.7991 39.9649C64.467 39.3221 63.9848 38.8131 63.3526 38.4381C62.7312 38.0524 61.9865 37.8595 61.1186 37.8595C60.2614 37.8595 59.5167 38.0524 58.8846 38.4381C58.2524 38.8131 57.7649 39.3221 57.422 39.9649C57.0898 40.6078 56.9237 41.3311 56.9237 42.1347C56.9237 42.9276 57.0898 43.6508 57.422 44.3044C57.7649 44.9473 58.2524 45.4616 58.8846 45.8474C59.5167 46.2224 60.2614 46.4099 61.1186 46.4099ZM77.9266 47.4546V37.9559H74.2139V36.8148H82.8447V37.9559H79.132V47.4546H77.9266ZM92.5253 47.5832C91.7217 47.5832 90.9877 47.4439 90.3234 47.1653C89.6591 46.8867 89.0858 46.4956 88.6037 45.992C88.1322 45.4884 87.7679 44.9098 87.5108 44.2562C87.2536 43.5919 87.125 42.8847 87.125 42.1347C87.125 41.3739 87.2536 40.6668 87.5108 40.0132C87.7679 39.3596 88.1322 38.781 88.6037 38.2774C89.0858 37.7738 89.6591 37.3827 90.3234 37.1041C90.9877 36.8255 91.7217 36.6862 92.5253 36.6862C93.3289 36.6862 94.0629 36.8255 94.7272 37.1041C95.3915 37.3827 95.9594 37.7738 96.4308 38.2774C96.913 38.781 97.2827 39.3596 97.5398 40.0132C97.797 40.6668 97.9255 41.3739 97.9255 42.1347C97.9255 42.8847 97.797 43.5919 97.5398 44.2562C97.2827 44.9098 96.913 45.4884 96.4308 45.992C95.9594 46.4956 95.3915 46.8867 94.7272 47.1653C94.0629 47.4439 93.3289 47.5832 92.5253 47.5832ZM92.5253 46.4099C93.3932 46.4099 94.1379 46.2224 94.7593 45.8474C95.3915 45.4616 95.8737 44.9473 96.2058 44.3044C96.5487 43.6508 96.7201 42.9276 96.7201 42.1347C96.7201 41.3311 96.5487 40.6078 96.2058 39.9649C95.8737 39.3221 95.3915 38.8131 94.7593 38.4381C94.1379 38.0524 93.3932 37.8595 92.5253 37.8595C91.6681 37.8595 90.9234 38.0524 90.2913 38.4381C89.6591 38.8131 89.1716 39.3221 88.8287 39.9649C88.4965 40.6078 88.3304 41.3311 88.3304 42.1347C88.3304 42.9276 88.4965 43.6508 88.8287 44.3044C89.1716 44.9473 89.6591 45.4616 90.2913 45.8474C90.9234 46.2224 91.6681 46.4099 92.5253 46.4099ZM103.276 47.4546V36.8148H104.674L108.483 41.8615L112.228 36.8148H113.626V47.4546H112.421V38.647L108.483 43.7098L104.481 38.647V47.4546H103.276ZM118.392 47.4546L122.909 36.8148H124.419L128.936 47.4546H127.602L126.3 44.3687H121.028L119.726 47.4546H118.392ZM121.494 43.2597H125.834L123.664 38.0684L121.494 43.2597ZM137.518 47.5832C136.468 47.5832 135.616 47.4439 134.963 47.1653C134.309 46.876 133.816 46.4795 133.484 45.9759C133.163 45.4724 132.975 44.9045 132.922 44.2723H134.175C134.207 44.7866 134.379 45.2045 134.69 45.5259C135 45.8367 135.407 46.067 135.911 46.217C136.425 46.367 136.988 46.442 137.599 46.442C138.499 46.442 139.211 46.2867 139.736 45.9759C140.261 45.6545 140.524 45.1831 140.524 44.5616C140.524 44.1866 140.39 43.8866 140.122 43.6616C139.865 43.4258 139.517 43.233 139.077 43.083C138.649 42.9329 138.177 42.799 137.663 42.6811C137.149 42.5526 136.629 42.4186 136.104 42.2793C135.59 42.1401 135.113 41.9633 134.673 41.749C134.245 41.5347 133.897 41.2614 133.629 40.9293C133.372 40.5864 133.243 40.1525 133.243 39.6274C133.243 38.7595 133.575 38.0524 134.239 37.5059C134.915 36.9594 135.916 36.6862 137.245 36.6862C138.188 36.6862 138.965 36.8309 139.575 37.1202C140.186 37.3988 140.642 37.7684 140.942 38.2291C141.252 38.6899 141.424 39.1881 141.456 39.7239H140.218C140.154 39.1881 139.886 38.7381 139.415 38.3738C138.943 37.9988 138.22 37.8113 137.245 37.8113C136.645 37.8113 136.157 37.8702 135.782 37.9881C135.407 38.1059 135.118 38.2613 134.915 38.4542C134.722 38.6363 134.588 38.8292 134.513 39.0328C134.448 39.2363 134.416 39.4292 134.416 39.6114C134.416 39.9649 134.545 40.2542 134.802 40.4793C135.07 40.6936 135.418 40.8757 135.847 41.0257C136.286 41.165 136.768 41.2936 137.293 41.4114C137.818 41.5293 138.338 41.6632 138.852 41.8132C139.377 41.9525 139.854 42.1347 140.283 42.3597C140.722 42.574 141.07 42.8526 141.327 43.1955C141.595 43.5383 141.729 43.9776 141.729 44.5134C141.729 45.4991 141.354 46.2599 140.604 46.7956C139.854 47.3207 138.825 47.5832 137.518 47.5832Z" fill="#4BAD4E"/>
</svg>
