<svg width="137" height="44" viewBox="0 0 137 44" fill="none" xmlns="http://www.w3.org/2000/svg">
<path d="M4.51184 23V20.072H8.49584C9.23184 20.072 9.80784 19.856 10.2238 19.424C10.6398 18.992 10.8478 18.464 10.8478 17.84C10.8478 17.408 10.7518 17.024 10.5598 16.688C10.3678 16.352 10.0958 16.088 9.74384 15.896C9.40784 15.704 8.99184 15.608 8.49584 15.608H4.51184V12.752H8.18384C8.80784 12.752 9.31184 12.6 9.69584 12.296C10.0798 11.976 10.2718 11.496 10.2718 10.856C10.2718 10.232 10.0798 9.76799 9.69584 9.46399C9.31184 9.14399 8.80784 8.98399 8.18384 8.98399H4.51184V6.05599H8.90384C9.99184 6.05599 10.9118 6.25599 11.6638 6.65599C12.4318 7.05599 13.0158 7.59199 13.4158 8.26399C13.8158 8.93599 14.0158 9.67999 14.0158 10.496C14.0158 11.536 13.6798 12.416 13.0078 13.136C12.3358 13.856 11.3438 14.352 10.0318 14.624L10.1278 13.352C11.5518 13.624 12.6478 14.176 13.4158 15.008C14.1998 15.84 14.5918 16.864 14.5918 18.08C14.5918 19.008 14.3598 19.848 13.8958 20.6C13.4478 21.336 12.7918 21.92 11.9278 22.352C11.0798 22.784 10.0558 23 8.85584 23H4.51184ZM1.63184 23V6.05599H5.35184V23H1.63184ZM21.5428 23.24C20.4708 23.24 19.5108 22.976 18.6628 22.448C17.8308 21.92 17.1668 21.2 16.6708 20.288C16.1908 19.376 15.9508 18.336 15.9508 17.168C15.9508 16 16.1908 14.96 16.6708 14.048C17.1668 13.136 17.8308 12.416 18.6628 11.888C19.5108 11.36 20.4708 11.096 21.5428 11.096C22.3268 11.096 23.0308 11.248 23.6548 11.552C24.2948 11.856 24.8148 12.28 25.2148 12.824C25.6148 13.352 25.8388 13.96 25.8868 14.648V19.688C25.8388 20.376 25.6148 20.992 25.2148 21.536C24.8308 22.064 24.3188 22.48 23.6788 22.784C23.0388 23.088 22.3268 23.24 21.5428 23.24ZM22.2868 19.928C23.0708 19.928 23.7028 19.672 24.1828 19.16C24.6628 18.632 24.9028 17.968 24.9028 17.168C24.9028 16.624 24.7908 16.144 24.5668 15.728C24.3588 15.312 24.0548 14.992 23.6548 14.768C23.2708 14.528 22.8228 14.408 22.3108 14.408C21.7988 14.408 21.3428 14.528 20.9428 14.768C20.5588 14.992 20.2468 15.312 20.0068 15.728C19.7828 16.144 19.6708 16.624 19.6708 17.168C19.6708 17.696 19.7828 18.168 20.0068 18.584C20.2308 19 20.5428 19.328 20.9428 19.568C21.3428 19.808 21.7908 19.928 22.2868 19.928ZM24.7588 23V19.856L25.3108 17.024L24.7588 14.192V11.336H28.3588V23H24.7588ZM30.9442 23V5.57599H34.6162V23H30.9442ZM42.074 23.24C41.0021 23.24 40.0421 22.976 39.1941 22.448C38.3621 21.92 37.6981 21.2 37.2021 20.288C36.7221 19.376 36.4821 18.336 36.4821 17.168C36.4821 16 36.7221 14.96 37.2021 14.048C37.6981 13.136 38.3621 12.416 39.1941 11.888C40.0421 11.36 41.0021 11.096 42.074 11.096C42.8581 11.096 43.5621 11.248 44.1861 11.552C44.8261 11.856 45.3461 12.28 45.7461 12.824C46.1461 13.352 46.3701 13.96 46.4181 14.648V19.688C46.3701 20.376 46.1461 20.992 45.7461 21.536C45.3621 22.064 44.8501 22.48 44.2101 22.784C43.5701 23.088 42.8581 23.24 42.074 23.24ZM42.8181 19.928C43.6021 19.928 44.2341 19.672 44.7141 19.16C45.1941 18.632 45.4341 17.968 45.4341 17.168C45.4341 16.624 45.3221 16.144 45.0981 15.728C44.8901 15.312 44.5861 14.992 44.1861 14.768C43.8021 14.528 43.3541 14.408 42.8421 14.408C42.3301 14.408 41.8741 14.528 41.4741 14.768C41.0901 14.992 40.7781 15.312 40.5381 15.728C40.3141 16.144 40.2021 16.624 40.2021 17.168C40.2021 17.696 40.3141 18.168 40.5381 18.584C40.7621 19 41.0741 19.328 41.4741 19.568C41.8741 19.808 42.3221 19.928 42.8181 19.928ZM45.2901 23V19.856L45.8421 17.024L45.2901 14.192V11.336H48.8901V23H45.2901ZM56.4195 28.232C55.1395 28.232 54.0115 28.008 53.0355 27.56C52.0755 27.128 51.3155 26.512 50.7555 25.712L53.0115 23.456C53.4275 23.952 53.8915 24.328 54.4035 24.584C54.9315 24.84 55.5635 24.968 56.2995 24.968C57.2115 24.968 57.9235 24.744 58.4355 24.296C58.9635 23.848 59.2275 23.216 59.2275 22.4V19.424L59.8515 16.88L59.2995 14.336V11.336H62.8995V22.304C62.8995 23.504 62.6195 24.544 62.0595 25.424C61.4995 26.304 60.7315 26.992 59.7555 27.488C58.7795 27.984 57.6675 28.232 56.4195 28.232ZM56.2515 22.64C55.1795 22.64 54.2275 22.384 53.3955 21.872C52.5635 21.36 51.9075 20.664 51.4275 19.784C50.9475 18.904 50.7075 17.928 50.7075 16.856C50.7075 15.768 50.9475 14.792 51.4275 13.928C51.9075 13.048 52.5635 12.36 53.3955 11.864C54.2275 11.352 55.1795 11.096 56.2515 11.096C57.0515 11.096 57.7635 11.248 58.3875 11.552C59.0275 11.84 59.5395 12.256 59.9235 12.8C60.3235 13.328 60.5475 13.944 60.5955 14.648V19.088C60.5475 19.776 60.3235 20.392 59.9235 20.936C59.5395 21.464 59.0275 21.88 58.3875 22.184C57.7475 22.488 57.0355 22.64 56.2515 22.64ZM56.9475 19.376C57.4595 19.376 57.8995 19.264 58.2675 19.04C58.6515 18.816 58.9395 18.52 59.1315 18.152C59.3395 17.768 59.4435 17.336 59.4435 16.856C59.4435 16.376 59.3395 15.944 59.1315 15.56C58.9395 15.176 58.6515 14.872 58.2675 14.648C57.8995 14.424 57.4595 14.312 56.9475 14.312C56.4515 14.312 56.0115 14.424 55.6275 14.648C55.2435 14.872 54.9475 15.176 54.7395 15.56C54.5315 15.944 54.4275 16.376 54.4275 16.856C54.4275 17.304 54.5315 17.728 54.7395 18.128C54.9475 18.512 55.2355 18.816 55.6035 19.04C55.9875 19.264 56.4355 19.376 56.9475 19.376ZM70.6751 23.264C69.6031 23.264 68.6511 23.048 67.8191 22.616C67.0031 22.168 66.3631 21.56 65.8991 20.792C65.4351 20.008 65.2031 19.112 65.2031 18.104V11.336H68.8751V18.056C68.8751 18.456 68.9391 18.8 69.0671 19.088C69.2111 19.376 69.4191 19.6 69.6911 19.76C69.9631 19.92 70.2911 20 70.6751 20C71.2191 20 71.6511 19.832 71.9711 19.496C72.2911 19.144 72.4511 18.664 72.4511 18.056V11.336H76.1231V18.08C76.1231 19.104 75.8911 20.008 75.4271 20.792C74.9631 21.56 74.3231 22.168 73.5071 22.616C72.6911 23.048 71.7471 23.264 70.6751 23.264ZM86.1326 23V16.352C86.1326 15.744 85.9406 15.256 85.5566 14.888C85.1886 14.504 84.7166 14.312 84.1406 14.312C83.7406 14.312 83.3886 14.4 83.0846 14.576C82.7806 14.736 82.5406 14.976 82.3646 15.296C82.1886 15.6 82.1006 15.952 82.1006 16.352L80.6846 15.656C80.6846 14.744 80.8846 13.944 81.2846 13.256C81.6846 12.568 82.2366 12.04 82.9406 11.672C83.6606 11.288 84.4686 11.096 85.3646 11.096C86.2286 11.096 86.9886 11.304 87.6446 11.72C88.3166 12.12 88.8446 12.656 89.2286 13.328C89.6126 14 89.8046 14.736 89.8046 15.536V23H86.1326ZM78.4286 23V11.336H82.1006V23H78.4286ZM97.035 23.24C95.963 23.24 95.003 22.976 94.155 22.448C93.323 21.92 92.659 21.2 92.163 20.288C91.683 19.376 91.443 18.336 91.443 17.168C91.443 16 91.683 14.96 92.163 14.048C92.659 13.136 93.323 12.416 94.155 11.888C95.003 11.36 95.963 11.096 97.035 11.096C97.819 11.096 98.523 11.248 99.147 11.552C99.787 11.856 100.307 12.28 100.707 12.824C101.107 13.352 101.331 13.96 101.379 14.648V19.688C101.331 20.376 101.107 20.992 100.707 21.536C100.323 22.064 99.811 22.48 99.171 22.784C98.531 23.088 97.819 23.24 97.035 23.24ZM97.779 19.928C98.563 19.928 99.195 19.672 99.675 19.16C100.155 18.632 100.395 17.968 100.395 17.168C100.395 16.624 100.283 16.144 100.059 15.728C99.851 15.312 99.547 14.992 99.147 14.768C98.763 14.528 98.315 14.408 97.803 14.408C97.291 14.408 96.835 14.528 96.435 14.768C96.051 14.992 95.739 15.312 95.499 15.728C95.275 16.144 95.163 16.624 95.163 17.168C95.163 17.696 95.275 18.168 95.499 18.584C95.723 19 96.035 19.328 96.435 19.568C96.835 19.808 97.283 19.928 97.779 19.928ZM100.251 23V19.856L100.803 17.024L100.251 14.192V11.336H103.851V23H100.251ZM114.141 23V16.352C114.141 15.744 113.949 15.256 113.565 14.888C113.197 14.504 112.725 14.312 112.149 14.312C111.749 14.312 111.397 14.4 111.093 14.576C110.789 14.736 110.549 14.976 110.373 15.296C110.197 15.6 110.109 15.952 110.109 16.352L108.693 15.656C108.693 14.744 108.893 13.944 109.293 13.256C109.693 12.568 110.245 12.04 110.949 11.672C111.669 11.288 112.477 11.096 113.373 11.096C114.237 11.096 114.997 11.304 115.653 11.72C116.325 12.12 116.853 12.656 117.237 13.328C117.621 14 117.813 14.736 117.813 15.536V23H114.141ZM106.437 23V11.336H110.109V23H106.437Z" fill="#237D31"/>
<path d="M4.13402 40.104C3.28469 40.104 2.59569 39.9913 2.06702 39.766C1.53835 39.532 1.13969 39.2113 0.871016 38.804C0.611016 38.3967 0.459349 37.9373 0.416016 37.426H1.43002C1.45602 37.842 1.59469 38.18 1.84602 38.44C2.09735 38.6913 2.42669 38.8777 2.83402 38.999C3.25002 39.1203 3.70502 39.181 4.19902 39.181C4.92702 39.181 5.50335 39.0553 5.92802 38.804C6.35269 38.544 6.56502 38.1627 6.56502 37.66C6.56502 37.3567 6.45669 37.114 6.24002 36.932C6.03202 36.7413 5.75035 36.5853 5.39502 36.464C5.04835 36.3427 4.66702 36.2343 4.25102 36.139C3.83502 36.035 3.41469 35.9267 2.99002 35.814C2.57402 35.7013 2.18835 35.5583 1.83302 35.385C1.48635 35.2117 1.20469 34.9907 0.988016 34.722C0.780016 34.4447 0.676016 34.0937 0.676016 33.669C0.676016 32.967 0.944683 32.395 1.48202 31.953C2.02802 31.511 2.83835 31.29 3.91302 31.29C4.67569 31.29 5.30402 31.407 5.79802 31.641C6.29202 31.8663 6.66035 32.1653 6.90302 32.538C7.15435 32.9107 7.29302 33.3137 7.31902 33.747H6.31802C6.26602 33.3137 6.04935 32.9497 5.66802 32.655C5.28669 32.3517 4.70169 32.2 3.91302 32.2C3.42769 32.2 3.03335 32.2477 2.73002 32.343C2.42669 32.4383 2.19269 32.564 2.02802 32.72C1.87202 32.8673 1.76369 33.0233 1.70302 33.188C1.65102 33.3527 1.62502 33.5087 1.62502 33.656C1.62502 33.942 1.72902 34.176 1.93702 34.358C2.15369 34.5313 2.43535 34.6787 2.78202 34.8C3.13735 34.9127 3.52735 35.0167 3.95202 35.112C4.37669 35.2073 4.79702 35.3157 5.21302 35.437C5.63769 35.5497 6.02335 35.697 6.37002 35.879C6.72535 36.0523 7.00702 36.2777 7.21502 36.555C7.43169 36.8323 7.54002 37.1877 7.54002 37.621C7.54002 38.4183 7.23669 39.0337 6.63002 39.467C6.02335 39.8917 5.19135 40.104 4.13402 40.104ZM10.8046 40L14.4576 31.394H15.6796L19.3326 40H18.2536L17.2006 37.504H12.9366L11.8836 40H10.8046ZM13.3136 36.607H16.8236L15.0686 32.408L13.3136 36.607ZM23.1936 40V31.394H24.3246L29.6416 38.635V31.394H30.6166V40H29.4856L24.1686 32.733V40H23.1936ZM37.6274 40V32.317H34.6244V31.394H41.6054V32.317H38.6024V40H37.6274ZM49.4355 40.104C48.7855 40.104 48.1919 39.9913 47.6545 39.766C47.1172 39.5407 46.6535 39.2243 46.2635 38.817C45.8822 38.4097 45.5875 37.9417 45.3795 37.413C45.1715 36.8757 45.0675 36.3037 45.0675 35.697C45.0675 35.0817 45.1715 34.5097 45.3795 33.981C45.5875 33.4523 45.8822 32.9843 46.2635 32.577C46.6535 32.1697 47.1172 31.8533 47.6545 31.628C48.1919 31.4027 48.7855 31.29 49.4355 31.29C50.0855 31.29 50.6792 31.4027 51.2165 31.628C51.7539 31.8533 52.2132 32.1697 52.5945 32.577C52.9845 32.9843 53.2835 33.4523 53.4915 33.981C53.6995 34.5097 53.8035 35.0817 53.8035 35.697C53.8035 36.3037 53.6995 36.8757 53.4915 37.413C53.2835 37.9417 52.9845 38.4097 52.5945 38.817C52.2132 39.2243 51.7539 39.5407 51.2165 39.766C50.6792 39.9913 50.0855 40.104 49.4355 40.104ZM49.4355 39.155C50.1375 39.155 50.7399 39.0033 51.2425 38.7C51.7539 38.388 52.1439 37.972 52.4125 37.452C52.6899 36.9233 52.8285 36.3383 52.8285 35.697C52.8285 35.047 52.6899 34.462 52.4125 33.942C52.1439 33.422 51.7539 33.0103 51.2425 32.707C50.7399 32.395 50.1375 32.239 49.4355 32.239C48.7422 32.239 48.1399 32.395 47.6285 32.707C47.1172 33.0103 46.7229 33.422 46.4455 33.942C46.1769 34.462 46.0425 35.047 46.0425 35.697C46.0425 36.3383 46.1769 36.9233 46.4455 37.452C46.7229 37.972 47.1172 38.388 47.6285 38.7C48.1399 39.0033 48.7422 39.155 49.4355 39.155ZM63.0307 40V32.317H60.0277V31.394H67.0087V32.317H64.0057V40H63.0307ZM74.8389 40.104C74.1889 40.104 73.5952 39.9913 73.0579 39.766C72.5205 39.5407 72.0569 39.2243 71.6669 38.817C71.2855 38.4097 70.9909 37.9417 70.7829 37.413C70.5749 36.8757 70.4709 36.3037 70.4709 35.697C70.4709 35.0817 70.5749 34.5097 70.7829 33.981C70.9909 33.4523 71.2855 32.9843 71.6669 32.577C72.0569 32.1697 72.5205 31.8533 73.0579 31.628C73.5952 31.4027 74.1889 31.29 74.8389 31.29C75.4889 31.29 76.0825 31.4027 76.6199 31.628C77.1572 31.8533 77.6165 32.1697 77.9979 32.577C78.3879 32.9843 78.6869 33.4523 78.8949 33.981C79.1029 34.5097 79.2069 35.0817 79.2069 35.697C79.2069 36.3037 79.1029 36.8757 78.8949 37.413C78.6869 37.9417 78.3879 38.4097 77.9979 38.817C77.6165 39.2243 77.1572 39.5407 76.6199 39.766C76.0825 39.9913 75.4889 40.104 74.8389 40.104ZM74.8389 39.155C75.5409 39.155 76.1432 39.0033 76.6459 38.7C77.1572 38.388 77.5472 37.972 77.8159 37.452C78.0932 36.9233 78.2319 36.3383 78.2319 35.697C78.2319 35.047 78.0932 34.462 77.8159 33.942C77.5472 33.422 77.1572 33.0103 76.6459 32.707C76.1432 32.395 75.5409 32.239 74.8389 32.239C74.1455 32.239 73.5432 32.395 73.0319 32.707C72.5205 33.0103 72.1262 33.422 71.8489 33.942C71.5802 34.462 71.4459 35.047 71.4459 35.697C71.4459 36.3383 71.5802 36.9233 71.8489 37.452C72.1262 37.972 72.5205 38.388 73.0319 38.7C73.5432 39.0033 74.1455 39.155 74.8389 39.155ZM83.5344 40V31.394H84.6654L87.7464 35.476L90.7754 31.394H91.9064V40H90.9314V32.876L87.7464 36.971L84.5094 32.876V40H83.5344ZM95.7617 40L99.4147 31.394H100.637L104.29 40H103.211L102.158 37.504H97.8937L96.8407 40H95.7617ZM98.2707 36.607H101.781L100.026 32.408L98.2707 36.607ZM111.232 40.104C110.382 40.104 109.693 39.9913 109.165 39.766C108.636 39.532 108.237 39.2113 107.969 38.804C107.709 38.3967 107.557 37.9373 107.514 37.426H108.528C108.554 37.842 108.692 38.18 108.944 38.44C109.195 38.6913 109.524 38.8777 109.932 38.999C110.348 39.1203 110.803 39.181 111.297 39.181C112.025 39.181 112.601 39.0553 113.026 38.804C113.45 38.544 113.663 38.1627 113.663 37.66C113.663 37.3567 113.554 37.114 113.338 36.932C113.13 36.7413 112.848 36.5853 112.493 36.464C112.146 36.3427 111.765 36.2343 111.349 36.139C110.933 36.035 110.512 35.9267 110.088 35.814C109.672 35.7013 109.286 35.5583 108.931 35.385C108.584 35.2117 108.302 34.9907 108.086 34.722C107.878 34.4447 107.774 34.0937 107.774 33.669C107.774 32.967 108.042 32.395 108.58 31.953C109.126 31.511 109.936 31.29 111.011 31.29C111.773 31.29 112.402 31.407 112.896 31.641C113.39 31.8663 113.758 32.1653 114.001 32.538C114.252 32.9107 114.391 33.3137 114.417 33.747H113.416C113.364 33.3137 113.147 32.9497 112.766 32.655C112.384 32.3517 111.799 32.2 111.011 32.2C110.525 32.2 110.131 32.2477 109.828 32.343C109.524 32.4383 109.29 32.564 109.126 32.72C108.97 32.8673 108.861 33.0233 108.801 33.188C108.749 33.3527 108.723 33.5087 108.723 33.656C108.723 33.942 108.827 34.176 109.035 34.358C109.251 34.5313 109.533 34.6787 109.88 34.8C110.235 34.9127 110.625 35.0167 111.05 35.112C111.474 35.2073 111.895 35.3157 112.311 35.437C112.735 35.5497 113.121 35.697 113.468 35.879C113.823 36.0523 114.105 36.2777 114.313 36.555C114.529 36.8323 114.638 37.1877 114.638 37.621C114.638 38.4183 114.334 39.0337 113.728 39.467C113.121 39.8917 112.289 40.104 111.232 40.104Z" fill="#237D31"/>
</svg>
